<?xml version="1.0" encoding="UTF-8" standalone="no"?><svg width="28" height="26" viewBox="0 0 28 26" fill="none" xmlns="http://www.w3.org/2000/svg">
<g id="google_ic">
<g id="Group 123">
<path id="Vector" d="M6.91421 15.4656L6.02818 18.537L2.78973 18.6007C1.82191 16.9338 1.27295 15.0267 1.27295 13C1.27295 11.0403 1.78622 9.19223 2.69602 7.56497H2.69671L5.57984 8.0558L6.84282 10.7169C6.57848 11.4325 6.43441 12.2007 6.43441 13C6.4345 13.8676 6.60374 14.6988 6.91421 15.4656Z" fill="#FBBB00"/>
<path id="Vector_2" d="M26.5054 10.7922C26.6515 11.5071 26.7277 12.2454 26.7277 13C26.7277 13.8461 26.6319 14.6714 26.4494 15.4675C25.8299 18.1766 24.211 20.5422 21.9683 22.2162L21.9676 22.2156L18.3362 22.0435L17.8222 19.0643C19.3103 18.2539 20.4733 16.9857 21.0859 15.4675H14.2803V10.7922H21.1852H26.5054Z" fill="#518EF8"/>
<path id="Vector_3" d="M21.9672 22.2156L21.9679 22.2163C19.7868 23.8442 17.0161 24.8182 14 24.8182C9.15319 24.8182 4.93922 22.3026 2.78955 18.6007L6.91403 15.4656C7.98884 18.1293 10.756 20.0254 14 20.0254C15.3944 20.0254 16.7008 19.6754 17.8217 19.0643L21.9672 22.2156Z" fill="#28B446"/>
<path id="Vector_4" d="M22.1243 3.90259L18.0012 7.03699C16.8411 6.36364 15.4697 5.97465 14.0005 5.97465C10.683 5.97465 7.86411 7.95775 6.84314 10.7169L2.69699 7.56493H2.69629C4.81449 3.77273 9.0816 1.18182 14.0005 1.18182C17.0886 1.18182 19.9201 2.20327 22.1243 3.90259Z" fill="#F14336"/>
</g>
</g>
</svg>
