<?xml version="1.0" encoding="UTF-8" standalone="no"?><svg width="24" height="24" viewBox="0 0 24 24" fill="none" xmlns="http://www.w3.org/2000/svg">
<path d="M11.5 13C11.2182 13 10.948 13.1054 10.7487 13.2929C10.5494 13.4804 10.4375 13.7348 10.4375 14V17C10.4375 17.2652 10.5494 17.5196 10.7487 17.7071C10.948 17.8946 11.2182 18 11.5 18C11.7818 18 12.052 17.8946 12.2513 17.7071C12.4506 17.5196 12.5625 17.2652 12.5625 17V14C12.5625 13.7348 12.4506 13.4804 12.2513 13.2929C12.052 13.1054 11.7818 13 11.5 13ZM16.8125 9V7C16.8125 5.67392 16.2528 4.40215 15.2565 3.46447C14.2602 2.52678 12.909 2 11.5 2C10.091 2 8.73978 2.52678 7.74349 3.46447C6.74721 4.40215 6.1875 5.67392 6.1875 7V9C5.34212 9 4.53137 9.31607 3.9336 9.87868C3.33583 10.4413 3 11.2044 3 12V19C3 19.7956 3.33583 20.5587 3.9336 21.1213C4.53137 21.6839 5.34212 22 6.1875 22H16.8125C17.6579 22 18.4686 21.6839 19.0664 21.1213C19.6642 20.5587 20 19.7956 20 19V12C20 11.2044 19.6642 10.4413 19.0664 9.87868C18.4686 9.31607 17.6579 9 16.8125 9ZM8.3125 7C8.3125 6.20435 8.64832 5.44129 9.2461 4.87868C9.84387 4.31607 10.6546 4 11.5 4C12.3454 4 13.1561 4.31607 13.7539 4.87868C14.3517 5.44129 14.6875 6.20435 14.6875 7V9H8.3125V7ZM17.875 19C17.875 19.2652 17.7631 19.5196 17.5638 19.7071C17.3645 19.8946 17.0943 20 16.8125 20H6.1875C5.90571 20 5.63546 19.8946 5.4362 19.7071C5.23694 19.5196 5.125 19.2652 5.125 19V12C5.125 11.7348 5.23694 11.4804 5.4362 11.2929C5.63546 11.1054 5.90571 11 6.1875 11H16.8125C17.0943 11 17.3645 11.1054 17.5638 11.2929C17.7631 11.4804 17.875 11.7348 17.875 12V19Z" fill="#6E6F77"/>
</svg>
