<?xml version="1.0" encoding="UTF-8" standalone="no"?><svg width="382" height="56" viewBox="0 0 382 56" fill="none" xmlns="http://www.w3.org/2000/svg">
<path d="M33.62 6.58H21.2V41.5H13.04V6.58H0.62V0.7H33.62V6.58ZM68.8709 8.44V41.5H62.9309L61.9709 38.44C58.1309 41.08 54.3709 42.4 50.6909 42.4C46.6909 42.4 43.9309 41.36 42.4109 39.28C40.8909 37.16 40.1309 34.12 40.1309 30.16V8.44H48.0509V29.26C48.0509 31.9 48.4109 33.76 49.1309 34.84C49.8509 35.92 51.1709 36.46 53.0909 36.46C55.5709 36.46 58.1909 35.42 60.9509 33.34V8.44H68.8709ZM98.4186 15.1C96.4586 15.1 94.5986 15.32 92.8386 15.76C91.1186 16.16 89.2386 16.96 87.1986 18.16V41.5H79.2786V8.44H85.2186L86.5386 12.52C88.5386 10.72 90.4986 9.46 92.4186 8.74C94.3386 7.98 96.3386 7.6 98.4186 7.6V15.1ZM123.65 7.54C127.65 7.54 130.39 8.6 131.87 10.72C133.39 12.8 134.15 15.82 134.15 19.78V41.5H126.29V20.68C126.29 18.04 125.91 16.18 125.15 15.1C124.43 14.02 123.13 13.48 121.25 13.48C118.73 13.48 116.11 14.5 113.39 16.54V41.5H105.47V8.44H111.41L112.37 11.5C116.21 8.86 119.97 7.54 123.65 7.54ZM158.418 42.4C154.818 42.4 151.758 41.64 149.238 40.12C146.718 38.56 144.838 36.48 143.598 33.88C142.358 31.24 141.738 28.28 141.738 25C141.738 21.64 142.358 18.66 143.598 16.06C144.838 13.42 146.698 11.34 149.178 9.82C151.698 8.3 154.778 7.54 158.418 7.54C162.018 7.54 165.058 8.34 167.538 9.94C170.058 11.5 171.938 13.6 173.178 16.24C174.458 18.88 175.098 21.76 175.098 24.88C175.098 28.04 174.458 30.96 173.178 33.64C171.938 36.28 170.058 38.4 167.538 40C165.058 41.6 162.018 42.4 158.418 42.4ZM158.358 36.58C161.278 36.58 163.438 35.58 164.838 33.58C166.278 31.54 166.998 28.66 166.998 24.94C166.998 21.26 166.278 18.42 164.838 16.42C163.398 14.38 161.238 13.36 158.358 13.36C155.478 13.36 153.318 14.38 151.878 16.42C150.438 18.42 149.718 21.26 149.718 24.94C149.718 28.66 150.418 31.54 151.818 33.58C153.258 35.58 155.438 36.58 158.358 36.58Z" fill="black"/>
<path d="M209.992 41.5L199.372 25.72L188.752 41.5H179.212L194.572 20.5L180.112 0.7H189.772L199.372 15.52L208.972 0.7H218.512L204.112 20.38L219.652 41.5H209.992ZM242.789 7.54C245.669 7.54 248.209 8.22 250.409 9.58C252.649 10.9 254.389 12.86 255.629 15.46C256.869 18.06 257.489 21.16 257.489 24.76C257.489 30.72 255.829 35.16 252.509 38.08C249.229 40.96 244.889 42.4 239.489 42.4C237.529 42.4 235.789 42.18 234.269 41.74V55.54H226.349V8.38H232.289L233.129 10.96C235.929 8.68 239.149 7.54 242.789 7.54ZM239.069 36.58C242.589 36.58 245.189 35.56 246.869 33.52C248.589 31.44 249.449 28.46 249.449 24.58C249.449 20.58 248.749 17.72 247.349 16C245.949 14.28 244.169 13.42 242.009 13.42C240.489 13.42 239.129 13.62 237.929 14.02C236.729 14.38 235.509 14.98 234.269 15.82V35.86C235.789 36.34 237.389 36.58 239.069 36.58ZM284.454 15.1C282.494 15.1 280.634 15.32 278.874 15.76C277.154 16.16 275.274 16.96 273.234 18.16V41.5H265.314V8.44H271.254L272.574 12.52C274.574 10.72 276.534 9.46 278.454 8.74C280.374 7.98 282.374 7.6 284.454 7.6V15.1ZM305.605 36.58C307.525 36.58 309.285 36.2 310.885 35.44C312.525 34.68 314.205 33.58 315.925 32.14L318.325 37.12C316.405 38.88 314.425 40.2 312.385 41.08C310.385 41.96 308.105 42.4 305.545 42.4C301.865 42.4 298.785 41.64 296.305 40.12C293.825 38.56 291.965 36.48 290.725 33.88C289.525 31.24 288.925 28.28 288.925 25C288.925 21.64 289.545 18.66 290.785 16.06C292.025 13.42 293.885 11.34 296.365 9.82C298.845 8.3 301.905 7.54 305.545 7.54C309.665 7.54 312.885 8.7 315.205 11.02C317.565 13.3 318.765 16.52 318.805 20.68C318.805 22 318.585 23.48 318.145 25.12H296.725C296.765 28.8 297.505 31.64 298.945 33.64C300.385 35.6 302.605 36.58 305.605 36.58ZM305.185 12.94C303.065 12.94 301.345 13.56 300.025 14.8C298.705 16 297.785 17.66 297.265 19.78H311.065V19.06C311.065 17.1 310.505 15.6 309.385 14.56C308.305 13.48 306.905 12.94 305.185 12.94ZM335.841 42.4C331.321 42.4 327.401 41.52 324.081 39.76L325.881 34.24C329.041 35.8 332.321 36.58 335.721 36.58C337.681 36.58 339.241 36.24 340.401 35.56C341.601 34.84 342.201 33.78 342.201 32.38C342.201 31.22 341.641 30.3 340.521 29.62C339.441 28.94 337.721 28.18 335.361 27.34C333.161 26.54 331.361 25.8 329.961 25.12C328.601 24.44 327.421 23.5 326.421 22.3C325.461 21.06 324.981 19.54 324.981 17.74C324.981 14.42 326.181 11.9 328.581 10.18C330.981 8.42 334.221 7.54 338.301 7.54C340.181 7.54 342.021 7.76 343.821 8.2C345.661 8.6 347.281 9.2 348.681 10L346.881 15.52C344.081 14.08 341.281 13.36 338.481 13.36C336.721 13.36 335.321 13.66 334.281 14.26C333.281 14.82 332.781 15.7 332.781 16.9C332.781 18.06 333.301 18.96 334.341 19.6C335.381 20.2 337.081 20.92 339.441 21.76C341.681 22.52 343.481 23.26 344.841 23.98C346.241 24.66 347.441 25.66 348.441 26.98C349.481 28.26 350.001 29.9 350.001 31.9C350.001 35.18 348.761 37.76 346.281 39.64C343.841 41.48 340.361 42.4 335.841 42.4ZM366.955 42.4C362.435 42.4 358.515 41.52 355.195 39.76L356.995 34.24C360.155 35.8 363.435 36.58 366.835 36.58C368.795 36.58 370.355 36.24 371.515 35.56C372.715 34.84 373.315 33.78 373.315 32.38C373.315 31.22 372.755 30.3 371.635 29.62C370.555 28.94 368.835 28.18 366.475 27.34C364.275 26.54 362.475 25.8 361.075 25.12C359.715 24.44 358.535 23.5 357.535 22.3C356.575 21.06 356.095 19.54 356.095 17.74C356.095 14.42 357.295 11.9 359.695 10.18C362.095 8.42 365.335 7.54 369.415 7.54C371.295 7.54 373.135 7.76 374.935 8.2C376.775 8.6 378.395 9.2 379.795 10L377.995 15.52C375.195 14.08 372.395 13.36 369.595 13.36C367.835 13.36 366.435 13.66 365.395 14.26C364.395 14.82 363.895 15.7 363.895 16.9C363.895 18.06 364.415 18.96 365.455 19.6C366.495 20.2 368.195 20.92 370.555 21.76C372.795 22.52 374.595 23.26 375.955 23.98C377.355 24.66 378.555 25.66 379.555 26.98C380.595 28.26 381.115 29.9 381.115 31.9C381.115 35.18 379.875 37.76 377.395 39.64C374.955 41.48 371.475 42.4 366.955 42.4Z" fill="#2A60FF"/>
</svg>
